<svg xmlns="http://www.w3.org/2000/svg" viewBox="0 0 758 151"><defs><style>.cls-1{fill:#fff;}.cls-2{fill:#d81e06;}</style></defs><title>资源 4</title><g id="图层_2" data-name="图层 2"><g id="图层_1-2" data-name="图层 1"><circle class="cls-1" cx="75.5" cy="75.5" r="75.5"/><path class="cls-2" d="M86.93,25.81a17.15,17.15,0,0,1,8.51-.11,23.54,23.54,0,0,1,8.85,4.23,6.64,6.64,0,0,1,2.25,2.76,5.72,5.72,0,0,1-.51,5.19,5.6,5.6,0,0,1-4,2.5,5.71,5.71,0,0,1-3.72-.78c-.61-.36-1.09-.92-1.71-1.28a10.14,10.14,0,0,0-5.59-1.84,5.33,5.33,0,0,0-3.61,1.81,4,4,0,0,0-1.06,3.56q1,3.88,2.06,7.78a30.2,30.2,0,0,1,14.14,4.14,40.22,40.22,0,0,1,10.82,9.65,33.88,33.88,0,0,1,5.58,11,37,37,0,0,1,1.34,13.19,41.17,41.17,0,0,1-2.24,10.75,42,42,0,0,1-16.78,20.56,45.33,45.33,0,0,1-18.62,6.49,46.67,46.67,0,0,1-13.66-.2,45.2,45.2,0,0,1-24.54-12.82A47.88,47.88,0,0,1,31.75,68.05,47.22,47.22,0,0,1,60.17,34.8a10.32,10.32,0,0,1,2-.66,5.63,5.63,0,0,1,3,10.81,36,36,0,0,0-23,28.83,36.52,36.52,0,0,0,19.1,37.08,33.06,33.06,0,0,0,15.32,3.68,38.52,38.52,0,0,0,12.85-2.28A30.43,30.43,0,0,0,105.88,98,24.23,24.23,0,0,0,108,93a27.86,27.86,0,0,0,.15-15.52A23.53,23.53,0,0,0,101,66.58a31.56,31.56,0,0,0-4.69-3.44,18.21,18.21,0,0,0-4.74-1.78c1.15,4.49,2.37,9,3.54,13.44.2,1.08.39,2.15.58,3.23A19.09,19.09,0,0,1,80.26,97.34a18.46,18.46,0,0,1-13.5-2.5,20.18,20.18,0,0,1-8-10.37,24.33,24.33,0,0,1-1.33-7.32,25.19,25.19,0,0,1,4.25-15.4A28.27,28.27,0,0,1,77.16,51c-.45-1.73-.92-3.46-1.37-5.19a15.33,15.33,0,0,1,.83-11.44,16.39,16.39,0,0,1,4-5.08,16.56,16.56,0,0,1,6.29-3.44M72.26,66.48A13.17,13.17,0,0,0,69,72.73a16.52,16.52,0,0,0,0,6.46,9.61,9.61,0,0,0,3.71,6,7.1,7.1,0,0,0,5.45,1.08A7.83,7.83,0,0,0,84.43,79a18.71,18.71,0,0,0-.52-2.58c-1.28-4.87-2.58-9.73-3.86-14.59A17.93,17.93,0,0,0,72.26,66.48Z"/><path class="cls-1" d="M185.63,123.93V42a14.44,14.44,0,0,1,4.16-10.56q4.11-4.11,11.25-4.11H274.2q7.59,0,11.87,3.71,4.51,4,4.51,11.3v66.95a14.32,14.32,0,0,1-3.88,10.15q-4.17,4.45-11.3,4.46h-9.76V113.42h8.05a6.41,6.41,0,0,0,4.34-1.71,5.08,5.08,0,0,0,1.94-3.88l-.06-63q0-7-7.42-7h-69q-7.31,0-7.3,7v79.11Zm15.75-15.76V95.9a49,49,0,0,0,11.13-12.32,136.87,136.87,0,0,1-5.88-15.47q-2.69-9-5.31-19.06h10q4.17,16.14,6.51,23.11,2.38-6.51,6.67-23.11h10.1q-1.31,4.39-4.22,15.29a91.92,91.92,0,0,1-7.3,19.18,85.1,85.1,0,0,0,11.47,12.73v11.92q-8.34-4.9-16.61-15.69a64.06,64.06,0,0,1-7.59,8.62A75.56,75.56,0,0,1,201.38,108.17Zm38.52,0V96.07a51.6,51.6,0,0,0,11.25-12.61q-4.46-10.56-6.23-16.38-1.53-5-4.9-18h10q2.91,11.93,6.45,23.57l6.74-23.57h9.93q-2.34,9-4,14.66a158.08,158.08,0,0,1-7.25,19.81A49.33,49.33,0,0,0,273.18,96v12.21a60.14,60.14,0,0,1-10.68-8.79,50,50,0,0,1-5.93-7A62.1,62.1,0,0,1,239.9,108.12Z"/><path class="cls-1" d="M302.28,91.05V80a24.09,24.09,0,0,0,6.85-1.6q1.61-.63,6.22-3.14v-27h-12.5v-11h12.5V27.47h10.56v9.82H335v11h-9.13V68A59.24,59.24,0,0,1,335,64.34v11A50.1,50.1,0,0,0,325.91,80v28.13q0,16-17.12,16h-4.74V113.77h3.2q4.56,0,6.33-1.77t1.77-6.57V87.29a62.14,62.14,0,0,1-6.56,2.62A48.53,48.53,0,0,1,302.28,91.05Zm66.43-63.23V38.37h-8.16q-6.27,0-7.65,1c-2,1.36-3,3.63-3,6.79V95.5c0,4.42.59,7.21,1.77,8.39s3.35,1.83,6.28,1.83h5.59v10.56h-8.16q-7.71,0-11.82-4.28a13,13,0,0,1-3.13-4.63,27,27,0,0,1-1.09-8.61v-54q0-7.08,2.23-10.28a14.79,14.79,0,0,1,5.59-5.13q3.19-1.55,9.7-1.54Zm3.6,96.39V41.29c0-4.61.47-7.63,1.43-9.08q3-4.39,7.13-4.39h14.84q5.42,0,7,1.08a9.26,9.26,0,0,1,3.42,3.6,12.73,12.73,0,0,1,1.09,5.87v65.24q0,5.07-1.32,7.07a9.18,9.18,0,0,1-3.93,3.6q-2,.91-6.51.91h-6.11V104.64h2.8c1.86,0,3.06-.29,3.6-.86s.91-2.15.91-4.4V43.74c0-2.32-.13-3.69-.4-4.11a3.14,3.14,0,0,0-1.54-1.2,9.8,9.8,0,0,0-3.14-.28h-4.11c-1.83,0-3,.32-3.65,1s-1,2.47-1,5.48v79.61Z"/><path class="cls-1" d="M419.16,69V58.64H524.29V69H442.05l-9.19,35.33a13.45,13.45,0,0,0-.45,3.31,4.9,4.9,0,0,0,2.51,4.62,5.91,5.91,0,0,0,3,.86h65.29a22.22,22.22,0,0,0,5.6-.4,4.52,4.52,0,0,0,3-4.68,11.12,11.12,0,0,0-.29-2.57l-5.76-23.91h10.9l5.13,22.31a35.52,35.52,0,0,1,1,7.94q0,5.88-5.59,9.58Q513.28,124,505.29,124H437.37a18.39,18.39,0,0,1-10.9-3.14,12.15,12.15,0,0,1-5.36-10.55,23.11,23.11,0,0,1,.85-5.65L431.15,69Zm2-31.1V27.7H522.52V37.92Z"/><path class="cls-1" d="M535.88,42.54V32h47.31V26.79h10.5V32h47.48V42.54Zm0,25.28V57.27h11.3V48.13h10.56v9.14h61.4V48.13h10.62v9.14h11.41V67.82Zm2.51,46.23V84.89a9.92,9.92,0,0,1,2.91-7.31A10.47,10.47,0,0,1,549,74.84h79.61a9.37,9.37,0,0,1,6.79,2.8,8.5,8.5,0,0,1,2.74,6.28v29.62a10.29,10.29,0,0,1-2.79,7.59,9.36,9.36,0,0,1-6.91,2.74H547.58a8.94,8.94,0,0,1-6.4-2.8A9.3,9.3,0,0,1,538.39,114.05ZM549,94.31h78.64V88.66q0-3.25-3.31-3.26H553q-4.05,0-4,3.26Zm78.64,10.55H549v5.6c0,1.9.89,2.85,2.68,2.85h71.68c1.79,0,3-.29,3.48-.86s.8-1.65.8-3.36Z"/><path class="cls-1" d="M652.87,123.81,653,113a18.22,18.22,0,0,0,5.94-5q4.9-6.68,7.53-20.43h10.9q-2.56,15.35-7.87,23.74a28.61,28.61,0,0,1-9.13,9.53A26.71,26.71,0,0,1,652.87,123.81Zm103-95.42V39.12H712.17V68.45h45.66V79H712.17v25q0,8.22-2.34,12.16a14.57,14.57,0,0,1-13.24,7.36h-9.47V113h8.22a5.47,5.47,0,0,0,5-2.62,8.29,8.29,0,0,0,1.08-4.4V79h-32q-9.48,0-13.81-7.25A11.91,11.91,0,0,1,653.84,67c0-.19-.05-1.41-.05-3.65V42.71a13.39,13.39,0,0,1,4.05-10,12.13,12.13,0,0,1,4.85-3.31,23,23,0,0,1,7.48-1ZM701.38,68.45V39.12H671.14a7.07,7.07,0,0,0-5.2,1.82,5.75,5.75,0,0,0-1.59,4.23v16.2c0,2.44.39,4.06,1.19,4.86a7.1,7.1,0,0,0,5.37,2.22Zm32.25,19.18h10.84q1.83,9.59,3.88,14.15a35.75,35.75,0,0,0,4.74,7.65,16,16,0,0,0,4.91,3.65v10.73a26.09,26.09,0,0,1-12.1-6.62q-6.23-6.39-9.47-16.89A97.86,97.86,0,0,1,733.63,87.63Z"/></g></g></svg>