<svg xmlns="http://www.w3.org/2000/svg" viewBox="0 0 48 38"><defs><style>.cls-1{fill:#c42929;}</style></defs><title>资源 12</title><g id="图层_2" data-name="图层 2"><g id="图层_1-2" data-name="图层 1"><path class="cls-1" d="M43.63,2A2.37,2.37,0,0,1,46,4.37V33.63A2.37,2.37,0,0,1,43.63,36H4.37A2.37,2.37,0,0,1,2,33.63V4.37A2.37,2.37,0,0,1,4.37,2H43.63m0-2H4.37A4.37,4.37,0,0,0,0,4.37V33.63A4.37,4.37,0,0,0,4.37,38H43.63A4.37,4.37,0,0,0,48,33.63V4.37A4.37,4.37,0,0,0,43.63,0Z"/><path class="cls-1" d="M18.5,2V21h-6V2h6m2-2h-10V23h10V0Z"/><polygon class="cls-1" points="17 23 14 23 14 37 17 37 17 23 17 23"/><path class="cls-1" d="M35.5,2V21h-6V2h6m2-2h-10V23h10V0Z"/><polygon class="cls-1" points="34 23 31 23 31 37 34 37 34 23 34 23"/></g></g></svg>