<svg xmlns="http://www.w3.org/2000/svg" viewBox="0 0 48 48"><defs><style>.cls-1{fill:#c42929;}</style></defs><title>资源 10</title><g id="图层_2" data-name="图层 2"><g id="图层_1-2" data-name="图层 1"><path class="cls-1" d="M24,2A22,22,0,1,1,2,24,22,22,0,0,1,24,2m0-2A24,24,0,1,0,48,24,24,24,0,0,0,24,0Z"/><circle class="cls-1" cx="14.5" cy="18" r="3"/><circle class="cls-1" cx="33.5" cy="18" r="3"/><path class="cls-1" d="M24,40C15.33,40,9.5,35,9.5,27.5a1,1,0,0,1,2,0C11.5,35.25,18.23,38,24,38s12.5-2.75,12.5-10.5a1,1,0,0,1,2,0C38.5,35,32.67,40,24,40Z"/></g></g></svg>