<svg xmlns="http://www.w3.org/2000/svg" viewBox="0 0 46 48"><defs><style>.cls-1{fill:#c42929;}</style></defs><title>资源 11</title><g id="图层_2" data-name="图层 2"><g id="图层_1-2" data-name="图层 1"><path class="cls-1" d="M34.34,19A2.66,2.66,0,0,1,37,21.66V29H2V21.66A2.66,2.66,0,0,1,4.66,19H34.34m0-2H4.66A4.66,4.66,0,0,0,0,21.66V31H39V21.66A4.66,4.66,0,0,0,34.34,17Z"/><path class="cls-1" d="M36.93,31c-.82,8.4-8.32,15-17.43,15S2.89,39.4,2.07,31H36.93M39,29H0a3.7,3.7,0,0,0,0,.48C0,39.71,8.73,48,19.5,48S39,39.71,39,29.48c0-.17,0-.33,0-.48Z"/><path class="cls-1" d="M39,23.22c2.86.63,5,2.56,5,4.78s-2.14,4.15-5,4.78V23.22M37,21V35c5,0,9-3.13,9-7s-4-7-9-7Z"/><path class="cls-1" d="M29,2V2h0m0-2a2,2,0,0,0-2,2v8a2,2,0,0,0,4,0V2a2,2,0,0,0-2-2Z"/><path class="cls-1" d="M21.5,5V5h0m0-2a2,2,0,0,0-2,2v5a2,2,0,0,0,4,0V5a2,2,0,0,0-2-2Z"/><path class="cls-1" d="M14,8V8h0m0-2a2,2,0,0,0-2,2v2a2,2,0,0,0,4,0V8a2,2,0,0,0-2-2Z"/></g></g></svg>