<svg xmlns="http://www.w3.org/2000/svg" viewBox="0 0 48 48"><defs><style>.cls-1{fill:#c42929;}.cls-2{fill:#fff;}</style></defs><title>资源 14</title><g id="图层_2" data-name="图层 2"><g id="图层_1-2" data-name="图层 1"><polygon class="cls-1" points="48 48 0 48 48 0 48 48"/><path class="cls-2" d="M44.5,26.8,29.8,41.5a2.17,2.17,0,0,1-1.4.5h-.16a1.76,1.76,0,0,1-1.4-.5l-6.46-6.44a1.59,1.59,0,0,1,0-2.31,1.62,1.62,0,0,1,1.16-.49,1.66,1.66,0,0,1,1.17.49l5.36,5.36a.3.3,0,0,0,.25.08.32.32,0,0,0,.25-.08L42.19,24.49A1.62,1.62,0,0,1,43.35,24a1.64,1.64,0,0,1,1.16.49A1.58,1.58,0,0,1,45,25.65,1.63,1.63,0,0,1,44.5,26.8Z"/></g></g></svg>