<svg xmlns="http://www.w3.org/2000/svg" viewBox="0 0 48 48"><defs><style>.cls-1{fill:#c42929;}</style></defs><title>资源 9</title><g id="图层_2" data-name="图层 2"><g id="图层_1-2" data-name="图层 1"><path class="cls-1" d="M20,2V20H2V6A4,4,0,0,1,6,2H20m2-2H6A6,6,0,0,0,0,6V22H22V0Z"/><path class="cls-1" d="M42,2a4,4,0,0,1,4,4V20H28V2H42m0-2H26V22H48V6a6,6,0,0,0-6-6Z"/><path class="cls-1" d="M20,28V46H6a4,4,0,0,1-4-4V28H20m2-2H0V42a6,6,0,0,0,6,6H22V26Z"/><path class="cls-1" d="M46,28V42a4,4,0,0,1-4,4H28V28H46m2-2H26V48H42a6,6,0,0,0,6-6V26Z"/></g></g></svg>