<svg xmlns="http://www.w3.org/2000/svg" viewBox="0 0 46.84 48"><defs><style>.cls-1{fill:#c42929;}</style></defs><title>资源 13</title><g id="图层_2" data-name="图层 2"><g id="图层_1-2" data-name="图层 1"><path class="cls-1" d="M23.41,48C10.5,48,0,37.24,0,24S10.5,0,23.41,0,46.84,10.77,46.84,24,36.33,48,23.41,48Zm0-45.65C11.8,2.35,2.35,12.07,2.35,24S11.8,45.66,23.41,45.66,44.49,35.94,44.49,24,35,2.35,23.41,2.35Z"/><path class="cls-1" d="M23.41,48C15.73,48,9.49,37.24,9.49,24S15.74,0,23.41,0c3.85,0,7.41,2.59,10,7.3A34.84,34.84,0,0,1,37.34,24,34.81,34.81,0,0,1,33.45,40.7C30.82,45.41,27.26,48,23.41,48Zm0-45.65c-6.27,0-11.58,9.92-11.58,21.66s5.31,21.65,11.58,21.65S35,35.74,35,24,29.69,2.35,23.41,2.35Z"/><path class="cls-1" d="M23.45,47.75a1.17,1.17,0,0,1-1.17-1.17V1.49a1.17,1.17,0,0,1,2.34,0V46.58A1.17,1.17,0,0,1,23.45,47.75Z"/><path class="cls-1" d="M23.41,15c-6.8,0-13.29-1.66-17.81-4.55a1.17,1.17,0,1,1,1.26-2C11,11.17,17.05,12.7,23.41,12.7S35.82,11.17,40,8.52a1.17,1.17,0,0,1,1.62.36,1.16,1.16,0,0,1-.36,1.61C36.71,13.38,30.21,15,23.41,15ZM45.17,25.21H2a1.18,1.18,0,0,1,0-2.35h43.2a1.18,1.18,0,0,1,0,2.35ZM40.6,38.86a1.19,1.19,0,0,1-.63-.19C35.82,36,29.79,34.51,23.41,34.51S11,36,6.85,38.67a1.17,1.17,0,1,1-1.26-2c4.51-2.88,11-4.54,17.82-4.54s13.3,1.65,17.82,4.54a1.17,1.17,0,0,1,.35,1.62A1.15,1.15,0,0,1,40.6,38.86Z"/></g></g></svg>